<?xml version="1.0" encoding="iso-8859-1"?>
<!-- Generator: Adobe Illustrator 22.0.0, SVG Export Plug-In . SVG Version: 6.00 Build 0)  -->
<svg version="1.1" id="Capa_1" xmlns="http://www.w3.org/2000/svg" xmlns:xlink="http://www.w3.org/1999/xlink" x="0px" y="0px"
	 viewBox="0 0 512 512" style="enable-background:new 0 0 512 512;" xml:space="preserve">
<g>
	<g>
		<g>
			<circle style="fill:#FCEE56;" cx="31.744" cy="104.476" r="24.244"/>
		</g>
	</g>
	<g>
		<polygon style="fill:#C3BEC6;" points="326.711,296.406 37.805,296.406 7.5,256 37.805,215.594 75.181,215.594 102.455,234.787 
			126.699,215.594 145.155,215.594 174.541,234.787 203.472,215.594 326.711,215.594 		"/>
	</g>
	<g>
		<path style="fill:#B4ACB7;" d="M326.711,215.594h-48.18c-4.128,12.736-6.369,26.313-6.369,40.406c0,3.173,0.12,6.317,0.349,9.432
			c0.347,4.715-3.323,8.751-8.051,8.751H54.978c-3.18,0-6.174-1.497-8.081-4.041l-25.002-33.335L7.5,256l30.305,40.406h288.906
			V215.594z"/>
	</g>
	<g>
		<path style="fill:#62B4FD;" d="M504.5,256c0-55.79-45.227-101.016-101.016-101.016S302.467,200.21,302.467,256
			s45.227,101.016,101.016,101.016S504.5,311.79,504.5,256z M432.778,256c0-11.158,9.045-20.203,20.203-20.203
			c11.158,0,20.203,9.045,20.203,20.203c0,11.158-9.045,20.203-20.203,20.203C441.824,276.203,432.778,267.158,432.778,256z"/>
	</g>
	<g>
		<path style="fill:#27A2FB;" d="M467.491,177.851c14.289,17.425,22.867,39.714,22.867,64.007
			c0,55.79-45.227,101.016-101.016,101.016c-24.293,0-46.582-8.578-64.007-22.867c18.526,22.592,46.653,37.009,78.149,37.009
			c55.79,0,101.016-45.226,101.016-101.016C504.5,224.504,490.083,196.377,467.491,177.851z"/>
	</g>
	<g>
		<path style="fill:#FCEE56;" d="M356.006,286.508v-61.016c0-11.046,8.954-20,20-20h0.406c11.046,0,20,8.954,20,20v61.016
			c0,11.046-8.954,20-20,20h-0.406C364.96,306.508,356.006,297.554,356.006,286.508z"/>
	</g>
	<g>
		<g>
			<circle style="fill:#FCEE56;" cx="31.744" cy="407.524" r="24.244"/>
		</g>
	</g>
	<g>
		<g>
			<circle style="fill:#FCEE56;" cx="291.356" cy="104.476" r="24.244"/>
		</g>
	</g>
	<g>
		<g>
			<circle style="fill:#FCEE56;" cx="161.045" cy="144.882" r="24.244"/>
		</g>
	</g>
	<g>
		<g>
			<circle style="fill:#FCEE56;" cx="291.356" cy="407.524" r="24.244"/>
		</g>
	</g>
	<g>
		<g>
			<circle style="fill:#FCEE56;" cx="161.045" cy="367.118" r="24.244"/>
		</g>
	</g>
	<g>
		<path d="M480.685,256c0-15.275-12.428-27.703-27.703-27.703S425.278,240.725,425.278,256s12.428,27.703,27.703,27.703
			S480.685,271.275,480.685,256z M440.278,256c0-7.004,5.699-12.703,12.703-12.703c7.004,0,12.703,5.699,12.703,12.703
			c0,7.004-5.699,12.703-12.703,12.703C445.977,268.703,440.278,263.004,440.278,256z"/>
		<path d="M403.484,147.484c-0.724,0-1.445,0.007-2.166,0.021c-4.141,0.082-7.433,3.504-7.351,7.646
			c0.082,4.142,3.508,7.419,7.646,7.351c0.622-0.012,1.246-0.018,1.871-0.018C455.049,162.484,497,204.435,497,256
			s-41.951,93.516-93.516,93.516c-51.565,0-93.516-41.951-93.516-93.516c0-38.82,23.36-73.026,59.513-87.144
			c3.858-1.507,5.765-5.856,4.258-9.714c-1.507-3.858-5.856-5.764-9.714-4.258c-20.122,7.858-37.301,21.419-49.682,39.217
			c-3.118,4.483-5.87,9.16-8.255,13.993h-60.771v-46.973l29.538-29.537c4.812,2.94,10.462,4.636,16.501,4.636
			c17.503,0,31.744-14.24,31.744-31.744c0-17.503-14.24-31.744-31.744-31.744c-17.504,0-31.744,14.24-31.744,31.744
			c0,6.04,1.696,11.69,4.636,16.501l-31.734,31.734c-1.407,1.406-2.197,3.314-2.197,5.303v50.079h-19.345v-22.805
			c0-4.142-3.358-7.5-7.5-7.5c-4.142,0-7.5,3.358-7.5,7.5v26.28l-21.463,14.239l-5.964-3.895v-46.189
			c13.895-3.38,24.244-15.921,24.244-30.841c0-17.504-14.24-31.744-31.744-31.744c-17.503,0-31.744,14.24-31.744,31.744
			c0,14.92,10.349,27.461,24.244,30.841v36.392l-4.289-2.801c-1.219-0.796-2.645-1.221-4.101-1.221h-10.956v-12.198
			c0-4.142-3.358-7.5-7.5-7.5c-4.142,0-7.5,3.358-7.5,7.5v16.069l-17.008,13.465l-9.409-6.621v-60.795
			c0-1.989-0.79-3.897-2.197-5.303l-31.734-31.734c2.94-4.812,4.636-10.462,4.636-16.501c0-17.503-14.24-31.744-31.744-31.744
			S0,86.972,0,104.476c0,17.504,14.24,31.744,31.744,31.744c6.04,0,11.69-1.697,16.501-4.636l29.537,29.537v47.458
			c-0.83-0.308-1.706-0.486-2.602-0.486H37.805c-2.361,0-4.583,1.111-6,3L1.5,251.5c-2,2.666-2,6.333,0,9l30.305,40.407
			c1.417,1.889,3.639,3,6,3h39.977v46.973l-29.537,29.537c-4.812-2.94-10.462-4.636-16.501-4.636C14.24,375.78,0,390.02,0,407.524
			c0,17.503,14.24,31.744,31.744,31.744s31.744-14.24,31.744-31.744c0-6.04-1.697-11.69-4.636-16.501l31.734-31.734
			c1.407-1.406,2.197-3.314,2.197-5.303v-50.079h26.417v12.198c0,4.142,3.358,7.5,7.5,7.5c4.142,0,7.5-3.358,7.5-7.5v-12.198h19.345
			v32.37c-13.895,3.38-24.244,15.921-24.244,30.841c0,17.504,14.24,31.744,31.744,31.744c17.504,0,31.744-14.24,31.744-31.744
			c0-14.92-10.349-27.461-24.244-30.841v-32.37h27.427v22.805c0,4.142,3.358,7.5,7.5,7.5c4.142,0,7.5-3.358,7.5-7.5v-22.805h19.345
			v50.079c0,1.989,0.79,3.897,2.197,5.303l31.734,31.734c-2.94,4.812-4.636,10.462-4.636,16.501
			c0,17.503,14.24,31.744,31.744,31.744c17.503,0,31.744-14.24,31.744-31.744c0-17.504-14.24-31.744-31.744-31.744
			c-6.04,0-11.69,1.697-16.501,4.636l-29.538-29.537v-46.973h9.152c4.142,0,7.5-3.358,7.5-7.5c0-4.142-3.358-7.5-7.5-7.5H41.555
			L16.875,256l24.68-32.907h31.251l25.332,17.827c2.717,1.91,6.367,1.808,8.972-0.253l22.198-17.574h13.614l27.517,17.973
			c2.508,1.638,5.751,1.626,8.248-0.029l27.047-17.943h94.315c-2.605,8.199-4.221,16.715-4.813,25.407h-57.418
			c-4.142,0-7.5,3.358-7.5,7.5c0,4.142,3.358,7.5,7.5,7.5h57.415c0.603,8.796,2.258,17.306,4.842,25.407h-10.542
			c-4.142,0-7.5,3.358-7.5,7.5c0,4.142,3.358,7.5,7.5,7.5h16.603c17.726,35.874,54.701,60.609,97.35,60.609
			C463.32,364.516,512,315.836,512,256S463.32,147.484,403.484,147.484z M291.356,87.732c9.232,0,16.744,7.511,16.744,16.744
			c0,9.233-7.511,16.744-16.744,16.744c-9.233,0-16.744-7.511-16.744-16.744C274.612,95.243,282.123,87.732,291.356,87.732z
			 M144.301,144.883c0-9.233,7.511-16.744,16.744-16.744c9.233,0,16.744,7.511,16.744,16.744c0,9.232-7.511,16.744-16.744,16.744
			C151.812,161.626,144.301,154.115,144.301,144.883z M15,104.476c0-9.232,7.511-16.744,16.744-16.744s16.744,7.511,16.744,16.744
			c0,9.233-7.511,16.744-16.744,16.744S15,113.709,15,104.476z M31.744,424.268c-9.233,0-16.744-7.511-16.744-16.744
			c0-9.233,7.511-16.744,16.744-16.744s16.744,7.511,16.744,16.744C48.488,416.757,40.977,424.268,31.744,424.268z M177.789,367.117
			c0,9.233-7.511,16.744-16.744,16.744c-9.232,0-16.744-7.511-16.744-16.744c0-9.232,7.511-16.744,16.744-16.744
			C170.278,350.374,177.789,357.885,177.789,367.117z M308.1,407.524c0,9.232-7.511,16.744-16.744,16.744
			c-9.233,0-16.744-7.511-16.744-16.744c0-9.233,7.511-16.744,16.744-16.744C300.588,390.78,308.1,398.291,308.1,407.524z"/>
		<path d="M348.506,225.492v61.016c0,15.164,12.336,27.5,27.5,27.5h0.406c15.164,0,27.5-12.336,27.5-27.5v-61.016
			c0-15.164-12.336-27.5-27.5-27.5h-0.406C360.843,197.992,348.506,210.328,348.506,225.492z M363.506,225.492
			c0-6.893,5.607-12.5,12.5-12.5h0.406c6.893,0,12.5,5.607,12.5,12.5v61.016c0,6.893-5.607,12.5-12.5,12.5h-0.406
			c-6.893,0-12.5-5.607-12.5-12.5V225.492z"/>
	</g>
</g>
<g>
</g>
<g>
</g>
<g>
</g>
<g>
</g>
<g>
</g>
<g>
</g>
<g>
</g>
<g>
</g>
<g>
</g>
<g>
</g>
<g>
</g>
<g>
</g>
<g>
</g>
<g>
</g>
<g>
</g>
</svg>
