<?xml version="1.0" encoding="iso-8859-1"?>
<!-- Generator: Adobe Illustrator 22.0.0, SVG Export Plug-In . SVG Version: 6.00 Build 0)  -->
<svg version="1.1" id="Capa_1" xmlns="http://www.w3.org/2000/svg" xmlns:xlink="http://www.w3.org/1999/xlink" x="0px" y="0px"
	 viewBox="0 0 512 512" style="enable-background:new 0 0 512 512;" xml:space="preserve">
<g>
	<g>
		<path style="fill:#C3BEC6;" d="M256,454.262l10.626-5.934c89.489-49.974,144.939-144.451,144.939-246.948V88.583L256,58.278
			L100.435,88.583V201.38c0,102.497,55.451,196.974,144.939,246.948L256,454.262z"/>
	</g>
	<g>
		<path style="fill:#B4ACB7;" d="M222.16,383.55c-23.005,0-45.132-4.699-65.813-13.355c23.442,31.52,53.557,58.325,89.028,78.133
			L256,454.262l10.626-5.934c79.405-44.343,132.004-123.726,142.851-212.658C376.037,323.14,304.73,383.55,222.16,383.55z"/>
	</g>
	<g>
		<path style="fill:#FCEE56;" d="M256,419.5c-77.387-45.157-125.26-128.29-125.26-218.12v-87.826L256,89.153l125.26,24.401v87.826
			C381.26,291.21,333.387,374.343,256,419.5z"/>
	</g>
	<g>
		<path style="fill:#FBD307;" d="M179.298,350.206c20.219,27.73,46.16,51.472,76.702,69.294
			c77.387-45.157,125.26-128.29,125.26-218.12v-54.062C360.495,263.221,278,349.87,179.298,350.206z"/>
	</g>
	<g>
		<g>
			<path style="fill:#A1E42C;" d="M247.918,308.431c-5.334,0-10.479-2.113-14.285-5.917l-56.569-56.569l28.573-28.572l39.566,39.566
				l71.036-101.173l33.069,23.219l-84.854,120.852c-3.429,4.884-8.842,8.002-14.786,8.518
				C249.083,308.406,248.499,308.431,247.918,308.431z"/>
		</g>
	</g>
	<g>
		<circle style="fill:#FCEE56;" cx="485.307" cy="272.432" r="19.193"/>
	</g>
	<g>
		<circle style="fill:#FCEE56;" cx="461.063" cy="184.548" r="19.193"/>
	</g>
	<g>
		<circle style="fill:#FCEE56;" cx="440.86" cy="360.317" r="19.193"/>
	</g>
	<g>
		<circle style="fill:#FCEE56;" cx="26.693" cy="272.432" r="19.193"/>
	</g>
	<g>
		<circle style="fill:#FCEE56;" cx="50.937" cy="184.548" r="19.193"/>
	</g>
	<g>
		<circle style="fill:#FCEE56;" cx="71.14" cy="360.317" r="19.193"/>
	</g>
	<g>
		<path d="M381.26,144.27c4.143,0,7.5-3.358,7.5-7.5v-23.216c0-3.589-2.543-6.675-6.065-7.362L257.434,81.791
			c-0.945-0.185-1.922-0.185-2.867,0l-125.261,24.401c-3.522,0.687-6.065,3.772-6.065,7.362v87.826
			c0,45.358,11.967,90.155,34.607,129.55c22.615,39.352,55.249,72.219,94.372,95.048c1.168,0.682,2.475,1.022,3.78,1.022
			s2.612-0.341,3.78-1.022c39.123-22.829,71.757-55.696,94.372-95.048c22.641-39.395,34.607-84.192,34.607-129.55v-29.641
			c0-4.142-3.357-7.5-7.5-7.5s-7.5,3.358-7.5,7.5v29.641c0,85.332-45.008,165.151-117.76,209.391
			c-72.752-44.239-117.76-124.059-117.76-209.391v-81.646L256,96.794l117.76,22.94v17.036
			C373.76,140.912,377.117,144.27,381.26,144.27z"/>
		<path d="M239.898,262.242c1.567,1.567,3.744,2.362,5.952,2.168c2.207-0.191,4.217-1.349,5.489-3.162l28.731-40.921
			c2.381-3.39,1.562-8.067-1.828-10.448c-3.389-2.38-8.068-1.56-10.447,1.829l-23.603,33.616l-33.254-33.254
			c-2.929-2.929-7.678-2.929-10.606,0l-28.572,28.571c-1.407,1.406-2.197,3.314-2.197,5.303s0.79,3.897,2.196,5.303l56.57,56.57
			c5.233,5.232,12.189,8.113,19.588,8.113c0.795,0,1.603-0.035,2.397-0.104c8.172-0.709,15.562-4.966,20.275-11.68l84.854-120.852
			c2.381-3.39,1.563-8.067-1.828-10.448l-33.068-23.219c-1.627-1.143-3.645-1.593-5.603-1.25c-1.959,0.343-3.702,1.45-4.845,3.078
			l-22.051,31.406c-2.381,3.39-1.562,8.067,1.828,10.448c3.392,2.381,8.069,1.561,10.447-1.829l17.741-25.268l20.793,14.6
			l-80.544,114.714c-2.162,3.078-5.55,5.03-9.298,5.355c-3.78,0.329-7.425-1.017-10.081-3.673l-51.267-51.266l17.966-17.965
			L239.898,262.242z"/>
		<path d="M485.307,245.74c-12.114,0-22.363,8.115-25.612,19.193h-47.747c4.675-20.711,7.118-42.095,7.118-63.823v-9.062h16.385
			c3.25,11.078,13.499,19.193,25.613,19.193c14.718,0,26.692-11.975,26.692-26.693c0-14.718-11.975-26.693-26.692-26.693
			c-12.115,0-22.364,8.115-25.613,19.193h-16.385V88.313c0-3.589-2.543-6.675-6.066-7.362L257.434,50.646
			c-0.945-0.185-1.922-0.185-2.867,0L99.001,80.951c-3.523,0.687-6.066,3.772-6.066,7.362v26.488c0,4.142,3.357,7.5,7.5,7.5
			s7.5-3.358,7.5-7.5V94.493L256,65.649l148.065,28.844V201.11c0,99.682-54.064,191.798-141.097,240.4L256,445.402l-6.969-3.892
			c-87.032-48.602-141.097-140.718-141.097-240.4v-51.277c0-4.142-3.357-7.5-7.5-7.5s-7.5,3.358-7.5,7.5v27.216H76.55
			c-3.25-11.078-13.499-19.193-25.613-19.193c-14.718,0-26.692,11.975-26.692,26.693c0,14.719,11.975,26.693,26.692,26.693
			c12.115,0,22.364-8.115,25.613-19.193h16.385v9.062c0,21.727,2.443,43.112,7.118,63.823H52.306
			c-3.25-11.078-13.498-19.193-25.612-19.193C11.975,245.74,0,257.714,0,272.432s11.975,26.693,26.693,26.693
			c12.114,0,22.363-8.115,25.612-19.193h51.559c7.271,25.729,18.035,50.249,31.908,72.884h-39.02
			c-3.25-11.078-13.498-19.193-25.613-19.193c-14.718,0-26.692,11.975-26.692,26.693c0,14.718,11.975,26.693,26.692,26.693
			c12.115,0,22.364-8.115,25.613-19.193h48.857c24.695,35.226,57.29,65.113,96.107,86.79l10.626,5.934
			c1.137,0.634,2.397,0.952,3.657,0.952s2.521-0.317,3.657-0.952l10.626-5.934c38.816-21.677,71.412-51.564,96.107-86.79h48.857
			c3.25,11.078,13.499,19.193,25.613,19.193c14.718,0,26.692-11.975,26.692-26.693c0-14.719-11.975-26.693-26.692-26.693
			c-12.115,0-22.364,8.115-25.613,19.193h-39.02c13.872-22.635,24.637-47.156,31.907-72.884h51.559
			c3.25,11.078,13.498,19.193,25.612,19.193c14.719,0,26.693-11.975,26.693-26.693S500.025,245.74,485.307,245.74z M461.063,172.855
			c6.447,0,11.692,5.246,11.692,11.693c0,6.448-5.245,11.693-11.692,11.693s-11.693-5.246-11.693-11.693
			C449.37,178.101,454.616,172.855,461.063,172.855z M50.937,196.242c-6.447,0-11.692-5.246-11.692-11.693
			c0-6.447,5.245-11.693,11.692-11.693s11.693,5.246,11.693,11.693C62.63,190.996,57.384,196.242,50.937,196.242z M26.693,284.125
			c-6.447,0-11.693-5.246-11.693-11.693s5.246-11.693,11.693-11.693s11.692,5.246,11.692,11.693S33.141,284.125,26.693,284.125z
			 M71.14,372.01c-6.447,0-11.692-5.246-11.692-11.693c0-6.448,5.245-11.693,11.692-11.693s11.693,5.246,11.693,11.693
			C82.833,366.764,77.587,372.01,71.14,372.01z M440.86,348.623c6.447,0,11.692,5.246,11.692,11.693
			c0,6.447-5.245,11.693-11.692,11.693s-11.693-5.246-11.693-11.693C429.167,353.869,434.413,348.623,440.86,348.623z
			 M485.307,284.125c-6.447,0-11.692-5.246-11.692-11.693s5.245-11.693,11.692-11.693S497,265.985,497,272.432
			S491.754,284.125,485.307,284.125z"/>
	</g>
</g>
<g>
</g>
<g>
</g>
<g>
</g>
<g>
</g>
<g>
</g>
<g>
</g>
<g>
</g>
<g>
</g>
<g>
</g>
<g>
</g>
<g>
</g>
<g>
</g>
<g>
</g>
<g>
</g>
<g>
</g>
</svg>
