<?xml version="1.0" encoding="iso-8859-1"?>
<!-- Generator: Adobe Illustrator 22.0.0, SVG Export Plug-In . SVG Version: 6.00 Build 0)  -->
<svg version="1.1" id="Capa_1" xmlns="http://www.w3.org/2000/svg" xmlns:xlink="http://www.w3.org/1999/xlink" x="0px" y="0px"
	 viewBox="0 0 512 512" style="enable-background:new 0 0 512 512;" xml:space="preserve">
<g>
	<g>
		<g>
			<path style="fill:#756E78;" d="M189.533,334.793H27.5c-11.046,0-20-8.954-20-20V27.5c0-11.046,8.954-20,20-20h162.033
				c11.046,0,20,8.954,20,20v287.293C209.533,325.838,200.578,334.793,189.533,334.793z"/>
		</g>
		<path style="fill:#665E66;" d="M192.574,7.5c0.152,0.994,0.255,2.004,0.255,3.041v297.293c0,5.523-4.477,10-10,10H10.797
			c-1.037,0-2.047-0.103-3.041-0.255c1.468,9.598,9.736,16.959,19.745,16.959h162.032c11.046,0,20-8.954,20-20V27.245
			C209.533,17.236,202.172,8.968,192.574,7.5z"/>
		<g>
			
				<rect x="-14.724" y="60.028" transform="matrix(-1.836970e-16 1 -1 -1.836970e-16 269.561 52.5285)" style="fill:#D0F0F3;" width="246.48" height="202.033"/>
		</g>
		<rect x="192.876" y="37.805" style="fill:#A5E4EF;" width="16.657" height="246.48"/>
		<g>
			<g>
				<circle style="fill:#FBD307;" cx="108.516" cy="161.045" r="68.691"/>
			</g>
			<g>
				<circle style="fill:#FCEE56;" cx="108.516" cy="161.045" r="56.268"/>
			</g>
		</g>
	</g>
	<g>
		<g>
			<path style="fill:#756E78;" d="M484.5,504.5H322.467c-11.046,0-20-8.954-20-20V197.207c0-11.046,8.954-20,20-20H484.5
				c11.046,0,20,8.954,20,20V484.5C504.5,495.546,495.546,504.5,484.5,504.5z"/>
		</g>
		<path style="fill:#665E66;" d="M487.541,177.463c0.152,0.994,0.255,2.004,0.255,3.041v297.293c0,5.523-4.477,10-10,10H305.764
			c-1.037,0-2.047-0.103-3.041-0.255c1.468,9.598,9.736,16.959,19.745,16.959H484.5c11.046,0,20-8.954,20-20V197.207
			C504.5,187.198,497.14,178.931,487.541,177.463z"/>
		<g>
			
				<rect x="280.244" y="229.736" transform="matrix(-1.836970e-16 1 -1 -1.836970e-16 734.2358 -72.7317)" style="fill:#D0F0F3;" width="246.48" height="202.033"/>
		</g>
		<rect x="487.843" y="207.512" style="fill:#A5E4EF;" width="16.657" height="246.48"/>
		<g>
			<g>
				<circle style="fill:#FBD307;" cx="403.484" cy="330.752" r="68.691"/>
			</g>
			<g>
				<circle style="fill:#FCEE56;" cx="403.484" cy="330.752" r="56.268"/>
			</g>
		</g>
	</g>
	<g>
		<path style="fill:#FB636F;" d="M418.636,92.544V49.927c0-8.368-6.784-15.152-15.152-15.152H256v30.305h132.331v27.465h-15.07
			l30.222,52.338l30.222-52.338H418.636z"/>
	</g>
	<g>
		<g>
			<path style="fill:#FA4954;" d="M405.587,49.927v36.556c0,3.347,2.714,6.061,6.061,6.061h6.988V49.927
				c0-8.368-6.784-15.152-15.152-15.152h-13.049C398.803,34.774,405.587,41.558,405.587,49.927z"/>
		</g>
		<g>
			<polygon style="fill:#FA4954;" points="420.656,92.544 396.959,133.583 403.484,144.882 433.706,92.544 			"/>
		</g>
	</g>
	<g>
		<path style="fill:#FB636F;" d="M93.364,419.456v42.617c0,8.368,6.784,15.152,15.152,15.152H256v-30.305H123.669v-27.465h15.07
			l-30.222-52.338l-30.222,52.338H93.364z"/>
	</g>
	<g>
		<g>
			<path style="fill:#FA4954;" d="M110.537,425.517v15.343c0,3.347,2.714,6.061,6.061,6.061h7.071v-27.465h-7.071
				C113.25,419.456,110.537,422.169,110.537,425.517z"/>
		</g>
		<g>
			<rect x="242.868" y="446.921" style="fill:#FA4954;" width="13.132" height="30.305"/>
		</g>
	</g>
	<g>
		<g>
			<polygon style="fill:#FA4954;" points="125.689,419.456 101.992,378.417 108.516,367.118 138.738,419.456 			"/>
		</g>
	</g>
	<g>
		<path d="M217.032,314.793V27.5c0-15.163-12.337-27.5-27.5-27.5H27.5C12.337,0,0,12.337,0,27.5v287.293
			c0,15.163,12.337,27.5,27.5,27.5h162.032C204.695,342.293,217.032,329.956,217.032,314.793z M15,45.305h187.032v231.479H15V45.305
			z M27.5,15h162.032c6.893,0,12.5,5.607,12.5,12.5v2.805H15V27.5C15,20.607,20.607,15,27.5,15z M15,314.793v-23.009h187.032v23.009
			c0,6.893-5.607,12.5-12.5,12.5H27.5C20.607,327.293,15,321.686,15,314.793z"/>
		<path d="M108.517,84.854c-42.012,0-76.191,34.18-76.191,76.191s34.18,76.19,76.191,76.19s76.19-34.179,76.19-76.19
			S150.528,84.854,108.517,84.854z M108.517,222.235c-33.741,0-61.191-27.45-61.191-61.19c0-33.741,27.45-61.191,61.191-61.191
			c33.74,0,61.19,27.45,61.19,61.191C169.707,194.785,142.257,222.235,108.517,222.235z"/>
		<path d="M128.139,129.763v-5.364c0-4.143-3.357-7.5-7.5-7.5s-7.5,3.357-7.5,7.5v3.16h-11.265v-3.16c0-4.143-3.357-7.5-7.5-7.5
			s-7.5,3.357-7.5,7.5v3.16h-1.678c-4.143,0-7.5,3.357-7.5,7.5c0,3.859,2.915,7.034,6.663,7.451v37.068
			c-3.748,0.417-6.663,3.591-6.663,7.451c0,4.143,3.357,7.5,7.5,7.5h1.678v3.161c0,4.143,3.357,7.5,7.5,7.5s7.5-3.357,7.5-7.5
			v-3.161h11.265v3.161c0,4.143,3.357,7.5,7.5,7.5s7.5-3.357,7.5-7.5v-5.365c6.632-3.361,11.197-10.228,11.197-18.158v-0.262
			c0-4.875-1.726-9.352-4.593-12.862c2.868-3.51,4.593-7.987,4.593-12.862v-0.261C139.336,139.993,134.77,133.125,128.139,129.763z
			 M124.336,173.906v0.262c0,2.956-2.405,5.361-5.361,5.361H99.359v-10.984h19.615C121.931,168.545,124.336,170.95,124.336,173.906z
			 M99.359,153.545V142.56h19.615c2.956,0,5.361,2.405,5.361,5.362v0.261c0,2.957-2.405,5.362-5.361,5.362H99.359z"/>
		<path d="M484.5,169.707H322.468c-15.164,0-27.5,12.336-27.5,27.5v151.335c0,4.143,3.357,7.5,7.5,7.5s7.5-3.357,7.5-7.5v-133.53
			H497v231.48H309.968v-63.055c0-4.143-3.357-7.5-7.5-7.5s-7.5,3.357-7.5,7.5V484.5c0,15.164,12.336,27.5,27.5,27.5H484.5
			c15.163,0,27.5-12.336,27.5-27.5V197.207C512,182.043,499.663,169.707,484.5,169.707z M309.968,200.012v-2.805
			c0-6.893,5.607-12.5,12.5-12.5H484.5c6.893,0,12.5,5.607,12.5,12.5v2.805H309.968z M484.5,497H322.468
			c-6.893,0-12.5-5.607-12.5-12.5v-23.008H497V484.5C497,491.393,491.393,497,484.5,497z"/>
		<path d="M479.675,330.752c0-42.012-34.18-76.191-76.191-76.191s-76.19,34.18-76.19,76.191s34.179,76.191,76.19,76.191
			S479.675,372.764,479.675,330.752z M342.293,330.752c0-33.741,27.45-61.191,61.19-61.191c33.741,0,61.191,27.45,61.191,61.191
			s-27.45,61.191-61.191,61.191C369.743,391.943,342.293,364.493,342.293,330.752z"/>
		<path d="M408.105,364.237v3.16c0,4.143,3.357,7.5,7.5,7.5s7.5-3.357,7.5-7.5v-5.364c6.632-3.361,11.198-10.229,11.198-18.158
			v-0.262c0-4.875-1.726-9.352-4.594-12.861c2.868-3.509,4.594-7.986,4.594-12.861v-0.262c0-7.929-4.566-14.797-11.198-18.158
			v-5.365c0-4.143-3.357-7.5-7.5-7.5s-7.5,3.357-7.5,7.5v3.161h-11.264v-3.161c0-4.143-3.357-7.5-7.5-7.5s-7.5,3.357-7.5,7.5v3.161
			h-1.678c-4.143,0-7.5,3.357-7.5,7.5c0,3.859,2.915,7.034,6.663,7.451v37.068c-3.748,0.417-6.663,3.591-6.663,7.451
			c0,4.143,3.357,7.5,7.5,7.5h1.678v3.16c0,4.143,3.357,7.5,7.5,7.5s7.5-3.357,7.5-7.5v-3.16H408.105z M413.941,312.268
			c2.957,0,5.362,2.405,5.362,5.361v0.262c0,2.956-2.405,5.361-5.362,5.361h-19.614v-10.984H413.941z M419.304,343.613v0.262
			c0,2.957-2.405,5.362-5.362,5.362h-19.614v-10.985h19.614C416.898,338.252,419.304,340.657,419.304,343.613z"/>
		<path d="M256,72.579h124.831v12.465h-7.569c-2.68,0-5.155,1.43-6.495,3.75c-1.34,2.321-1.34,5.18,0,7.5l30.222,52.338
			c1.34,2.32,3.815,3.75,6.495,3.75c2.679,0,5.155-1.43,6.495-3.749l30.223-52.338c1.34-2.321,1.34-5.18,0-7.501
			c-1.34-2.32-3.815-3.75-6.495-3.75h-7.57V49.927c0-12.49-10.162-22.652-22.652-22.652h-81.816c-4.143,0-7.5,3.357-7.5,7.5
			s3.357,7.5,7.5,7.5h81.816c4.22,0,7.652,3.433,7.652,7.652v42.617c0,4.143,3.357,7.5,7.5,7.5h2.079l-17.231,29.84l-17.23-29.84
			h2.078c4.143,0,7.5-3.357,7.5-7.5V65.079c0-4.143-3.357-7.5-7.5-7.5H263.5V42.274h23.042c4.143,0,7.5-3.357,7.5-7.5
			s-3.357-7.5-7.5-7.5H256c-4.143,0-7.5,3.357-7.5,7.5v30.305C248.5,69.222,251.857,72.579,256,72.579z"/>
		<path d="M256,439.421h-24.531c-4.143,0-7.5,3.357-7.5,7.5s3.357,7.5,7.5,7.5H248.5v15.305H108.517
			c-4.22,0-7.652-3.433-7.652-7.652v-42.617c0-4.143-3.357-7.5-7.5-7.5h-2.079l17.231-29.84l17.23,29.84h-2.078
			c-4.143,0-7.5,3.357-7.5,7.5v27.465c0,4.143,3.357,7.5,7.5,7.5h72.852c4.143,0,7.5-3.357,7.5-7.5s-3.357-7.5-7.5-7.5h-65.352
			v-12.465h7.569c2.68,0,5.155-1.43,6.495-3.75c1.34-2.321,1.34-5.18,0-7.5l-30.222-52.338c-1.34-2.32-3.815-3.75-6.495-3.75
			c-2.679,0-5.155,1.43-6.495,3.749l-30.223,52.338c-1.34,2.321-1.34,5.18,0,7.501c1.34,2.32,3.815,3.75,6.495,3.75h7.57v35.117
			c0,12.49,10.162,22.652,22.652,22.652H256c4.143,0,7.5-3.357,7.5-7.5v-30.305C263.5,442.778,260.143,439.421,256,439.421z"/>
	</g>
</g>
<g>
</g>
<g>
</g>
<g>
</g>
<g>
</g>
<g>
</g>
<g>
</g>
<g>
</g>
<g>
</g>
<g>
</g>
<g>
</g>
<g>
</g>
<g>
</g>
<g>
</g>
<g>
</g>
<g>
</g>
</svg>
