<?xml version="1.0" encoding="iso-8859-1"?>
<!-- Generator: Adobe Illustrator 22.0.0, SVG Export Plug-In . SVG Version: 6.00 Build 0)  -->
<svg version="1.1" id="Capa_1" xmlns="http://www.w3.org/2000/svg" xmlns:xlink="http://www.w3.org/1999/xlink" x="0px" y="0px"
	 viewBox="0 0 512 512" style="enable-background:new 0 0 512 512;" xml:space="preserve">
<g>
	<g>
		<g>
			<path style="fill:#665E66;" d="M282.267,334.793l82.982,26.332c25.175,7.988,42.278,31.359,42.278,57.771V504.5H35.787v-85.605
				c0-26.412,17.103-49.783,42.278-57.771l82.982-26.332H282.267z"/>
		</g>
		<g>
			<polygon style="fill:#756E78;" points="221.657,504.5 292.368,461.736 291.358,419.646 328.852,349.575 297.282,339.557 			"/>
		</g>
		<g>
			<polygon style="fill:#756E78;" points="221.657,504.5 150.946,461.736 151.956,419.646 114.462,349.575 146.032,339.557 			"/>
		</g>
		<g>
			<polygon style="fill:#D0F0F3;" points="146.032,339.557 221.657,504.5 297.282,339.557 282.267,334.793 221.657,322.671 
				161.047,334.793 			"/>
		</g>
		<g>
			<path style="fill:#A5E4EF;" d="M297.282,339.557l-15.015-4.765h-121.22l-15.015,4.765l38.551,40.282
				c4.44,4.64,12.026,4.012,15.644-1.294l21.43-31.43l21.43,31.43c3.618,5.306,11.204,5.934,15.644,1.294L297.282,339.557z"/>
		</g>
		<g>
			<polygon style="fill:#D0F0F3;" points="221.657,322.011 251.962,366.458 282.267,334.793 251.962,301.808 			"/>
		</g>
		<g>
			<polygon style="fill:#D0F0F3;" points="221.657,322.011 191.352,366.458 161.047,334.793 191.352,301.808 			"/>
		</g>
		<g>
			<polygon style="fill:#FFCBBE;" points="251.962,301.808 221.657,322.011 191.352,301.808 191.352,251.959 251.962,251.959 			"/>
		</g>
		<g>
			<path style="fill:#EAAC9D;" d="M191.352,275.598c9.571,3.016,19.751,4.646,30.305,4.646c10.554,0,20.734-1.63,30.305-4.646
				v-23.638h-60.61V275.598z"/>
		</g>
		<g>
			<path style="fill:#FFCBBE;" d="M302.47,179.228c0,44.632-36.181,80.813-80.813,80.813s-80.813-22.712-80.813-80.813V94.374
				H302.47V179.228z"/>
		</g>
		<g>
			<path style="fill:#EAAC9D;" d="M283.556,94.374v84.854c0,41.432-31.181,75.576-71.356,80.259
				c3.103,0.362,6.257,0.554,9.457,0.554c44.632,0,80.813-36.181,80.813-80.813V94.374H283.556z"/>
		</g>
		<g>
			<path style="fill:#FFCBBE;" d="M322.775,173.167H302.47V132.76h20.305c5.523,0,10,4.477,10,10v20.407
				C332.775,168.69,328.298,173.167,322.775,173.167z"/>
		</g>
		<g>
			<path style="fill:#FFCBBE;" d="M120.539,173.167h20.305V132.76h-20.305c-5.523,0-10,4.477-10,10v20.407
				C110.539,168.69,115.016,173.167,120.539,173.167z"/>
		</g>
		<g>
			<path style="fill:#756E78;" d="M217.605,142.862h-76.761V132.76h-20.203V98.415c0-50.211,40.704-90.915,90.915-90.915h26.264
				c12.274,0,22.224,9.95,22.224,22.224v0h0c34.59,0,62.63,28.04,62.63,62.63v40.407H302.47v10.102h-6.239
				c-6.887,0-13.377-3.225-17.536-8.715l-18.652-24.62l-17.672,21.599C236.293,138.554,227.202,142.862,217.605,142.862z"/>
		</g>
		<g>
			<path style="fill:#665E66;" d="M288.228,36.428c8.898,10.815,14.242,24.665,14.242,39.763v56.569h20.203V92.354
				C322.673,67.905,308.656,46.744,288.228,36.428z"/>
		</g>
	</g>
	<g>
		<g>
			<circle style="fill:#FBD307;" cx="407.527" cy="435.809" r="68.691"/>
		</g>
		<g>
			<circle style="fill:#FCEE56;" cx="407.527" cy="435.809" r="56.268"/>
		</g>
	</g>
	<g>
		<path d="M407.527,359.618c-7.62,0-14.976,1.138-21.924,3.229c-5.529-3.822-11.588-6.81-18.082-8.876l-81.085-25.726l-26.974-29.36
			v-39.857c29.425-13.996,49.934-43.797,50.49-78.362h12.823c9.649,0,17.5-7.851,17.5-17.5V142.76
			c0-7.003-4.145-13.042-10.102-15.836v-34.57c0-36.437-27.933-66.473-63.51-69.82C263.44,9.606,251.73,0,237.819,0h-26.264
			c-54.266,0-98.415,44.148-98.415,98.415v28.508c-5.957,2.795-10.102,8.833-10.102,15.836v20.407c0,9.649,7.851,17.5,17.5,17.5
			h12.832c0.285,28.906,9.074,51.241,26.172,66.372c6.872,6.081,15.055,10.847,24.309,14.257v37.589l-26.971,29.357l-81.088,25.729
			c-28.417,9.021-47.511,35.114-47.511,64.929v5.412c0,4.143,3.358,7.5,7.5,7.5s7.5-3.357,7.5-7.5V418.9
			c0-23.25,14.889-43.597,37.049-50.632l30.457-9.664l33.622,62.838l-0.963,40.114c-0.064,2.688,1.315,5.206,3.617,6.598
			L194.761,497h-88.844v-24.825c0-4.143-3.358-7.5-7.5-7.5s-7.5,3.357-7.5,7.5V497H43.282v-37.458c0-4.143-3.358-7.5-7.5-7.5
			s-7.5,3.357-7.5,7.5V504.5c0,4.143,3.358,7.5,7.5,7.5h371.74c0,0,0.001,0,0.001,0c0.001,0,0.002,0,0.003,0
			c42.012,0,76.191-34.18,76.191-76.191S449.539,359.618,407.527,359.618z M284.766,457.569l-46.133,27.899l62.703-136.758
			l16.646,5.281l-33.237,62.117c-0.611,1.142-0.916,2.423-0.885,3.718L284.766,457.569z M158.857,343.352l27.076,28.292
			c1.421,1.484,3.381,2.314,5.418,2.314c0.206,0,0.412-0.009,0.619-0.025c2.254-0.187,4.304-1.381,5.579-3.25l16.608-24.358v123.822
			l-57.775-126.01L158.857,343.352z M284.454,343.354l2.476,0.785l-57.774,126.007V346.324l16.608,24.359
			c1.274,1.868,3.324,3.063,5.579,3.249c2.262,0.185,4.473-0.655,6.037-2.289L284.454,343.354z M252.944,354.585l-20.821-30.537
			l18.659-12.439l21.204,23.08L252.944,354.585z M325.275,163.167c0,1.379-1.122,2.5-2.5,2.5H309.97v-22.806v-2.602h12.704h0.102
			c1.378,0,2.5,1.121,2.5,2.5V163.167z M315.173,92.354v32.906H302.47c-4.142,0-7.5,3.357-7.5,7.5v2.546
			c-4.046-0.359-7.827-2.428-10.297-5.688l-17.13-22.611V37.747C294.405,41.419,315.173,64.5,315.173,92.354z M118.039,163.167
			V142.76c0-1.379,1.122-2.5,2.5-2.5h0.102h12.703v2.602v22.806h-12.805C119.161,165.667,118.039,164.546,118.039,163.167z
			 M148.344,179.228v-28.866h22.409c4.142,0,7.5-3.357,7.5-7.5s-3.358-7.5-7.5-7.5h-22.409v-2.602c0-4.143-3.358-7.5-7.5-7.5
			h-12.703V98.415C128.141,52.42,165.56,15,211.555,15h26.264c8.119,0,14.724,6.605,14.724,14.724v77.126l-15.977,19.527
			c-4.672,5.71-11.583,8.985-18.962,8.985h-11.852c-4.142,0-7.5,3.357-7.5,7.5s3.358,7.5,7.5,7.5h11.852
			c11.896,0,23.039-5.28,30.571-14.487l11.641-14.227l12.9,17.027c5.288,6.981,13.534,11.269,22.253,11.649v28.904
			c0,40.425-32.888,73.313-73.313,73.313C194.277,252.541,148.344,243.017,148.344,179.228z M221.657,267.541
			c7.884,0,15.527-1.044,22.805-2.991v33.244l-22.805,15.204l-22.805-15.204v-32.341
			C206.009,266.835,213.634,267.541,221.657,267.541z M192.533,311.608l18.659,12.44l-20.821,30.537l-19.042-19.896L192.533,311.608
			z M158.568,416.108l-33.238-62.118l16.646-5.282l62.704,136.76l-46.133-27.899l0.906-37.743
			C159.484,418.531,159.18,417.25,158.568,416.108z M248.552,497l47.698-28.846c2.301-1.392,3.681-3.909,3.617-6.598l-0.963-40.114
			l33.622-62.837l30.452,9.661c1.901,0.605,3.748,1.321,5.55,2.122c-22.255,13.317-37.192,37.653-37.192,65.42
			c0,25.041,12.147,47.295,30.853,61.191H248.552z M407.527,497c-33.741,0-61.191-27.45-61.191-61.191
			c0-33.74,27.45-61.19,61.191-61.19s61.191,27.45,61.191,61.19C468.718,469.55,441.268,497,407.527,497z"/>
		<path d="M427.149,404.528v-5.364c0-4.143-3.358-7.5-7.5-7.5s-7.5,3.357-7.5,7.5v3.16h-11.264v-3.16c0-4.143-3.358-7.5-7.5-7.5
			s-7.5,3.357-7.5,7.5v3.16h-1.678c-4.142,0-7.5,3.357-7.5,7.5c0,3.859,2.915,7.034,6.663,7.451v18.534v18.535
			c-3.748,0.417-6.663,3.591-6.663,7.451c0,4.143,3.358,7.5,7.5,7.5h1.678v3.16c0,4.143,3.358,7.5,7.5,7.5s7.5-3.357,7.5-7.5v-3.16
			h11.264v3.16c0,4.143,3.358,7.5,7.5,7.5s7.5-3.357,7.5-7.5v-5.364c6.632-3.361,11.198-10.229,11.198-18.158v-0.261
			c0-4.875-1.726-9.353-4.594-12.862c2.868-3.509,4.594-7.987,4.594-12.862v-0.262C438.347,414.756,433.781,407.889,427.149,404.528
			z M423.347,448.671v0.261c0,2.957-2.405,5.362-5.362,5.362H398.37v-10.985h19.615
			C420.941,443.309,423.347,445.714,423.347,448.671z M398.37,428.309v-10.984h19.615c2.957,0,5.362,2.405,5.362,5.361v0.262
			c0,2.956-2.405,5.361-5.362,5.361H398.37z"/>
	</g>
</g>
<g>
</g>
<g>
</g>
<g>
</g>
<g>
</g>
<g>
</g>
<g>
</g>
<g>
</g>
<g>
</g>
<g>
</g>
<g>
</g>
<g>
</g>
<g>
</g>
<g>
</g>
<g>
</g>
<g>
</g>
</svg>
