<?xml version="1.0" encoding="iso-8859-1"?>
<!-- Generator: Adobe Illustrator 22.0.0, SVG Export Plug-In . SVG Version: 6.00 Build 0)  -->
<svg version="1.1" id="Capa_1" xmlns="http://www.w3.org/2000/svg" xmlns:xlink="http://www.w3.org/1999/xlink" x="0px" y="0px"
	 viewBox="0 0 512 512" style="enable-background:new 0 0 512 512;" xml:space="preserve">
<g>
	<g>
		<g>
			<g>
				<motion.path style="fill:#D0F0F3;" d="M393.468,109.81c-19.363-39.644-60.072-66.955-107.163-66.955
					c-38.907,0-73.456,18.644-95.212,47.481c-5.96-1.959-12.321-3.034-18.936-3.034c-32.813,0-59.518,26.08-60.56,58.64
					c-1.023-0.031-2.049-0.051-3.08-0.051C52.726,145.892,7.5,191.119,7.5,246.909s45.227,101.016,101.016,101.016
					c53.721,0,229.693,0,276.785,0c65.832,0,119.199-53.367,119.199-119.199C504.5,165.64,455.49,114.008,393.468,109.81z"/>
			</g>
			<g>
				<path style="fill:#A5E4EF;" d="M463.467,138.748c10.816,17.942,17.042,38.963,17.042,61.441
					c0,65.832-53.367,119.199-119.199,119.199c-47.091,0-223.064,0-276.785,0c-24.3,0-46.595-8.583-64.023-22.879
					c17.334,30.692,50.251,51.416,88.014,51.416c53.721,0,229.693,0,276.785,0c65.832,0,119.199-53.367,119.199-119.199
					C504.5,192.803,488.603,160.6,463.467,138.748z"/>
			</g>
		</g>
		<g>
			<g>
				<circle style="fill:#FBD307;" cx="256" cy="204.482" r="94.955"/>
			</g>
			<g>
				<circle style="fill:#FCEE56;" cx="256" cy="204.482" r="77.783"/>
			</g>
		</g>
	</g>
	<g>
		<g>
			
				<rect x="142.862" y="408.535" transform="matrix(-1.102107e-10 1 -1 -1.102107e-10 603.9247 273.7542)" style="fill:#C3BEC6;" width="44.447" height="60.61"/>
		</g>
		<g>
			
				<rect x="324.691" y="408.535" transform="matrix(5.508464e-11 1 -1 5.508464e-11 785.7542 91.9247)" style="fill:#C3BEC6;" width="44.447" height="60.61"/>
		</g>
		<g>
			<rect x="195.39" y="408.535" style="fill:#756E78;" width="121.22" height="60.61"/>
		</g>
		<g>
			<rect x="228.726" y="347.925" style="fill:#C3BEC6;" width="54.549" height="60.61"/>
		</g>
		<g>
			<path style="fill:#B4ACB7;" d="M267.132,408.535v-34.366c0-5.579-4.523-10.102-10.102-10.102h-28.305v-16.142h54.549v60.61
				H267.132z"/>
		</g>
		<g>
			<path style="fill:#665E66;" d="M298.427,408.535v32.325c0,5.579-4.523,10.102-10.102,10.102H195.39v18.183h121.22v-60.61H298.427
				z"/>
		</g>
	</g>
	<g>
		<path d="M477.711,142.053c-21.023-22.403-49.099-36.279-79.455-39.363c-10.274-19.346-25.395-35.725-43.939-47.548
			c-20.306-12.944-43.824-19.786-68.012-19.786c-38.388,0-73.814,16.84-97.997,46.39c-5.28-1.29-10.693-1.942-16.151-1.942
			c-17.806,0-34.646,6.829-47.419,19.229c-10.987,10.668-17.95,24.463-20.022,39.427C46.63,140.466,0,188.344,0,246.908
			c0,59.836,48.681,108.517,108.517,108.517h46.077c4.143,0,7.5-3.357,7.5-7.5s-3.357-7.5-7.5-7.5h-46.077
			C56.951,340.425,15,298.474,15,246.908c0-51.564,41.951-93.516,93.517-93.516c0.956,0,1.908,0.02,2.858,0.048
			c4.088,0.131,7.586-3.124,7.718-7.258c0.921-28.811,24.229-51.38,53.063-51.38c5.646,0,11.229,0.895,16.594,2.659
			c3.049,1.001,6.397-0.045,8.33-2.608c21.334-28.279,53.855-44.498,89.225-44.498c43.04,0,81.521,24.043,100.424,62.747
			c1.178,2.411,3.555,4.01,6.232,4.191C451.301,121.241,497,170.188,497,228.726c0,61.591-50.108,111.699-111.699,111.699H189.484
			c-4.143,0-7.5,3.357-7.5,7.5s3.357,7.5,7.5,7.5h31.741v45.609h-25.835c-4.143,0-7.5,3.357-7.5,7.5v0.582h-53.11
			c-4.143,0-7.5,3.357-7.5,7.5v44.447c0,4.143,3.357,7.5,7.5,7.5h53.11v0.581c0,4.143,3.357,7.5,7.5,7.5H264.5
			c4.143,0,7.5-3.357,7.5-7.5s-3.357-7.5-7.5-7.5h-61.609v-45.61h106.219v45.61h-9.526c-4.143,0-7.5,3.357-7.5,7.5
			s3.357,7.5,7.5,7.5h17.026c4.143,0,7.5-3.357,7.5-7.5v-0.581h53.11c4.143,0,7.5-3.357,7.5-7.5v-44.447c0-4.143-3.357-7.5-7.5-7.5
			h-53.11v-0.582c0-4.143-3.357-7.5-7.5-7.5h-25.835v-45.609h94.526c69.862,0,126.699-56.837,126.699-126.699
			C512,196.396,499.822,165.615,477.711,142.053z M142.28,453.563v-29.447h45.61v29.447H142.28z M369.72,424.116v29.447h-45.61
			v-29.447H369.72z M275.774,401.034h-39.549v-45.609h39.549V401.034z"/>
		<path d="M358.455,204.481c0-56.494-45.961-102.455-102.455-102.455s-102.455,45.961-102.455,102.455S199.506,306.937,256,306.937
			S358.455,260.976,358.455,204.481z M168.545,204.481c0-48.223,39.232-87.455,87.455-87.455s87.455,39.232,87.455,87.455
			S304.223,291.937,256,291.937S168.545,252.704,168.545,204.481z"/>
		<path d="M258.602,251.378v8.663c0,4.143,3.357,7.5,7.5,7.5s7.5-3.357,7.5-7.5v-8.726c14.076-0.904,25.254-12.637,25.254-26.938
			v-0.396c0-7.661-3.212-14.581-8.354-19.5c5.142-4.919,8.354-11.839,8.354-19.5v-0.396c0-14.301-11.178-26.034-25.254-26.938
			v-8.725c0-4.143-3.357-7.5-7.5-7.5s-7.5,3.357-7.5,7.5v8.662h-10.254v-8.662c0-4.143-3.357-7.5-7.5-7.5s-7.5,3.357-7.5,7.5v8.662
			h-12.703c-4.143,0-7.5,3.357-7.5,7.5s3.357,7.5,7.5,7.5h2.602v63.793h-2.602c-4.143,0-7.5,3.357-7.5,7.5s3.357,7.5,7.5,7.5h12.703
			v8.663c0,4.143,3.357,7.5,7.5,7.5s7.5-3.357,7.5-7.5v-8.663H258.602z M283.855,223.981v0.396c0,6.617-5.383,12-12,12h-33.609
			v-24.396h33.609C278.473,211.981,283.855,217.364,283.855,223.981z M283.855,184.585v0.396c0,6.617-5.383,12-12,12h-33.609
			v-24.396h33.609C278.473,172.585,283.855,177.968,283.855,184.585z"/>
	</g>
</g>
<g>
</g>
<g>
</g>
<g>
</g>
<g>
</g>
<g>
</g>
<g>
</g>
<g>
</g>
<g>
</g>
<g>
</g>
<g>
</g>
<g>
</g>
<g>
</g>
<g>
</g>
<g>
</g>
<g>
</g>
</svg>
