<svg xmlns="http://www.w3.org/2000/svg" xmlns:xlink="http://www.w3.org/1999/xlink" width="400" zoomAndPan="magnify" viewBox="0 0 192 48" height="150" preserveAspectRatio="xMidYMid meet" version="1.0"><defs><g/></defs><path stroke-linecap="butt" transform="matrix(0.734694, 0, 0, 0.734694, 1.959183, 23.706725)" fill="none" stroke-linejoin="miter" d="M 91.303173 2.887461 C 92.706818 2.887461 93.977543 3.137352 95.115347 3.637135 C 96.253151 4.131602 97.183598 4.822791 97.912005 5.705386 C 98.640412 6.582665 99.113611 7.592865 99.331602 8.730669 C 99.38477 8.932709 99.411354 9.097531 99.411354 9.214501 C 99.411354 9.368689 99.38477 9.469709 99.320968 9.517561 C 99.262483 9.570729 99.156146 9.60263 99.001957 9.618581 L 94.557079 9.900374 C 94.38694 9.900374 94.275286 9.868472 94.227435 9.809987 C 94.174266 9.751502 94.126415 9.618581 94.06793 9.416541 C 93.919058 8.603064 93.642582 7.965044 93.233186 7.502478 C 92.829106 7.034597 92.23362 6.800656 91.457361 6.800656 C 90.457795 6.800656 89.686853 7.241953 89.144535 8.124549 C 88.602218 9.007144 88.331059 10.437374 88.331059 12.415239 C 88.331059 14.467539 88.575633 15.924354 89.075416 16.785682 C 89.575199 17.652327 90.356775 18.082991 91.42546 18.082991 C 92.329323 18.082991 93.094948 17.854367 93.727652 17.402435 C 94.365673 16.93987 94.897357 16.179562 95.317387 15.110877 C 95.365239 14.956689 95.51411 14.882253 95.753368 14.882253 C 95.870338 14.882253 95.960725 14.88757 96.029844 14.908837 L 99.209314 15.546858 C 99.459206 15.626611 99.58681 15.823334 99.58681 16.131711 C 99.58681 16.604909 99.294384 17.338633 98.714848 18.332883 C 98.129996 19.321815 97.215499 20.220361 95.971358 21.039154 C 94.721901 21.847314 93.153433 22.256711 91.255321 22.256711 C 89.458229 22.256711 87.879127 21.826047 86.523333 20.970035 C 85.167539 20.114024 84.120121 18.933685 83.38108 17.439653 C 82.647356 15.934987 82.280494 14.228282 82.280494 12.314219 C 82.280494 10.416107 82.647356 8.757253 83.38108 7.337656 C 84.120121 5.912743 85.172855 4.817474 86.533967 4.046532 C 87.900395 3.270273 89.49013 2.887461 91.303173 2.887461 Z M 101.559358 3.722205 C 101.559358 3.536116 101.601892 3.392561 101.686962 3.296858 C 101.772031 3.190521 101.894319 3.137352 102.048507 3.137352 L 106.876198 3.137352 C 107.179258 3.137352 107.333446 3.318125 107.333446 3.674353 L 107.333446 17.476871 C 107.333446 17.609792 107.354714 17.705495 107.397249 17.753347 C 107.434466 17.806515 107.519536 17.827783 107.636506 17.827783 L 115.28744 17.827783 C 115.680886 17.827783 115.872292 17.992605 115.872292 18.311615 L 115.872292 21.443234 C 115.872292 21.613373 115.819124 21.746294 115.70747 21.852631 C 115.595817 21.948334 115.441628 22.001502 115.239588 22.001502 L 102.250547 22.001502 C 101.995339 22.001502 101.814566 21.948334 101.713546 21.852631 C 101.612526 21.746294 101.559358 21.586789 101.559358 21.368798 Z M 126.516607 22.256711 C 124.671663 22.256711 123.055344 21.863265 121.672965 21.076372 C 120.290587 20.284163 119.227219 19.167626 118.482861 17.716129 C 117.738503 16.269948 117.366324 14.573876 117.366324 12.622596 C 117.366324 10.671315 117.738503 8.969926 118.493495 7.502478 C 119.253803 6.035031 120.317171 4.897227 121.694233 4.094384 C 123.076611 3.286224 124.687614 2.887461 126.516607 2.887461 C 128.329649 2.887461 129.919385 3.286224 131.29113 4.094384 C 132.662874 4.897227 133.726243 6.035031 134.481234 7.502478 C 135.236225 8.969926 135.619038 10.671315 135.619038 12.622596 C 135.619038 14.552609 135.241542 16.248681 134.491868 17.705495 C 133.74751 19.16231 132.689459 20.284163 131.317714 21.076372 C 129.945969 21.863265 128.3456 22.256711 126.516607 22.256711 Z M 126.516607 18.290348 C 127.260965 18.290348 127.856451 18.104258 128.292432 17.742713 C 128.733729 17.381168 129.058057 16.790999 129.260097 15.977522 C 129.462136 15.164046 129.563156 14.068776 129.563156 12.697032 C 129.563156 10.59688 129.329215 9.086897 128.8507 8.1724 C 128.382818 7.257904 127.601242 6.800656 126.516607 6.800656 C 125.416021 6.800656 124.618495 7.257904 124.134662 8.1724 C 123.656147 9.086897 123.416889 10.59688 123.416889 12.697032 C 123.416889 14.068776 123.517909 15.164046 123.719949 15.977522 C 123.921989 16.790999 124.246316 17.381168 124.692931 17.742713 C 125.144862 18.104258 125.750982 18.290348 126.516607 18.290348 Z M 153.781365 14.552609 C 153.781365 17.333316 153.079542 19.311181 151.670579 20.49152 C 150.266933 21.666541 148.257167 22.256711 145.646599 22.256711 C 142.711703 22.256711 140.622185 21.576155 139.378044 20.225678 C 138.133903 18.869883 137.511833 16.806949 137.511833 14.042192 L 137.511833 3.722205 C 137.511833 3.536116 137.554368 3.392561 137.63412 3.296858 C 137.71919 3.190521 137.841477 3.137352 137.995665 3.137352 L 142.823357 3.137352 C 143.126416 3.137352 143.280605 3.318125 143.280605 3.674353 L 143.280605 14.653629 C 143.280605 15.903086 143.519863 16.812266 144.003695 17.375851 C 144.487528 17.934119 145.178717 18.215912 146.08258 18.215912 C 146.959858 18.215912 147.672315 17.934119 148.214633 17.375851 C 148.75695 16.812266 149.028109 15.881819 149.028109 14.579193 L 149.028109 3.722205 C 149.028109 3.334076 149.187615 3.137352 149.511942 3.137352 L 153.324116 3.137352 C 153.627176 3.137352 153.781365 3.318125 153.781365 3.674353 Z M 159.895731 3.137352 C 161.910814 3.137352 163.165588 3.147986 163.660054 3.163937 C 166.961812 3.286224 169.460727 4.179453 171.156799 5.843624 C 172.852871 7.513112 173.698249 9.735551 173.698249 12.516259 C 173.698249 14.38247 173.315437 16.025374 172.549812 17.450287 C 171.789503 18.8752 170.657016 19.991737 169.147034 20.79458 C 167.637051 21.597423 165.802741 22.001502 163.63347 22.001502 L 156.950202 22.001502 C 156.694993 22.001502 156.503587 21.943017 156.386617 21.826047 C 156.269646 21.703759 156.211161 21.512353 156.211161 21.235877 L 156.211161 3.775373 C 156.211161 3.536116 156.259012 3.371293 156.360032 3.280907 C 156.461052 3.185204 156.641825 3.137352 156.90235 3.137352 Z M 162.235141 7.1303 C 162.150072 7.1303 162.086269 7.156884 162.043735 7.204735 C 162.0012 7.252587 161.98525 7.34829 161.98525 7.486528 L 161.98525 17.625743 C 161.98525 17.779931 162.006517 17.880951 162.059685 17.934119 C 162.107537 17.987288 162.197923 18.008555 162.336161 18.008555 L 162.516934 18.008555 C 164.191738 18.008555 165.46778 17.572574 166.339742 16.700612 C 167.211704 15.828651 167.647685 14.409054 167.647685 12.441823 C 167.647685 10.745751 167.31804 9.48566 166.653435 8.656233 C 165.999464 7.826806 165.031799 7.34829 163.766391 7.23132 Z M 162.235141 7.1303 " stroke="#39489d" stroke-width="0.95337" stroke-opacity="1" stroke-miterlimit="4"/><g fill="#39489d" fill-opacity="1"><g transform="translate(14.787694, 21.939041)"><g><path d="M 3.5625 -13.40625 C 5 -13.40625 5.890625 -13.398438 6.234375 -13.390625 C 8.585938 -13.304688 10.363281 -12.671875 11.5625 -11.484375 C 12.769531 -10.296875 13.375 -8.71875 13.375 -6.75 C 13.375 -5.414062 13.101562 -4.242188 12.5625 -3.234375 C 12.019531 -2.222656 11.210938 -1.429688 10.140625 -0.859375 C 9.066406 -0.285156 7.757812 0 6.21875 0 L 1.46875 0 C 1.28125 0 1.144531 -0.0390625 1.0625 -0.125 C 0.976562 -0.207031 0.9375 -0.347656 0.9375 -0.546875 L 0.9375 -12.96875 C 0.9375 -13.132812 0.972656 -13.25 1.046875 -13.3125 C 1.117188 -13.375 1.242188 -13.40625 1.421875 -13.40625 Z M 5.21875 -10.578125 C 5.164062 -10.578125 5.125 -10.554688 5.09375 -10.515625 C 5.0625 -10.484375 5.046875 -10.421875 5.046875 -10.328125 L 5.046875 -3.109375 C 5.046875 -3.003906 5.0625 -2.929688 5.09375 -2.890625 C 5.132812 -2.859375 5.203125 -2.84375 5.296875 -2.84375 L 5.421875 -2.84375 C 6.617188 -2.84375 7.523438 -3.148438 8.140625 -3.765625 C 8.765625 -4.390625 9.078125 -5.398438 9.078125 -6.796875 C 9.078125 -8.003906 8.84375 -8.898438 8.375 -9.484375 C 7.90625 -10.078125 7.21875 -10.414062 6.3125 -10.5 Z M 5.21875 -10.578125 "/></g></g></g><g fill="#39489d" fill-opacity="1"><g transform="translate(28.727617, 21.939041)"><g><path d="M 0.9375 -13 C 0.9375 -13.269531 1.050781 -13.40625 1.28125 -13.40625 L 11.046875 -13.40625 C 11.265625 -13.40625 11.375 -13.28125 11.375 -13.03125 L 11.359375 -10.9375 C 11.359375 -10.613281 11.203125 -10.453125 10.890625 -10.453125 L 5.453125 -10.453125 C 5.179688 -10.453125 5.046875 -10.335938 5.046875 -10.109375 L 5.046875 -8.5625 C 5.046875 -8.445312 5.070312 -8.351562 5.125 -8.28125 C 5.1875 -8.21875 5.269531 -8.1875 5.375 -8.1875 L 8.625 -8.1875 C 8.875 -8.1875 9 -8.066406 9 -7.828125 L 9 -5.59375 C 9 -5.382812 8.890625 -5.28125 8.671875 -5.28125 L 5.328125 -5.28125 C 5.242188 -5.28125 5.175781 -5.253906 5.125 -5.203125 C 5.070312 -5.160156 5.046875 -5.101562 5.046875 -5.03125 L 5.046875 -3.21875 C 5.046875 -3.125 5.0625 -3.054688 5.09375 -3.015625 C 5.125 -2.984375 5.179688 -2.96875 5.265625 -2.96875 L 11.140625 -2.96875 C 11.398438 -2.96875 11.53125 -2.851562 11.53125 -2.625 L 11.53125 -0.390625 C 11.53125 -0.273438 11.492188 -0.179688 11.421875 -0.109375 C 11.347656 -0.0351562 11.238281 0 11.09375 0 L 1.421875 0 C 1.242188 0 1.117188 -0.0351562 1.046875 -0.109375 C 0.972656 -0.179688 0.9375 -0.296875 0.9375 -0.453125 Z M 0.9375 -13 "/></g></g></g><g fill="#39489d" fill-opacity="1"><g transform="translate(40.859516, 21.939041)"><g><path d="M 6.953125 -13.59375 C 7.953125 -13.59375 8.859375 -13.414062 9.671875 -13.0625 C 10.484375 -12.707031 11.144531 -12.210938 11.65625 -11.578125 C 12.175781 -10.953125 12.515625 -10.238281 12.671875 -9.4375 C 12.710938 -9.289062 12.734375 -9.175781 12.734375 -9.09375 C 12.734375 -8.988281 12.707031 -8.914062 12.65625 -8.875 C 12.613281 -8.84375 12.539062 -8.816406 12.4375 -8.796875 L 9.28125 -8.609375 C 9.15625 -8.609375 9.070312 -8.628906 9.03125 -8.671875 C 9 -8.710938 8.96875 -8.804688 8.9375 -8.953125 C 8.820312 -9.523438 8.617188 -9.976562 8.328125 -10.3125 C 8.046875 -10.644531 7.625 -10.8125 7.0625 -10.8125 C 6.351562 -10.8125 5.804688 -10.5 5.421875 -9.875 C 5.035156 -9.25 4.84375 -8.226562 4.84375 -6.8125 C 4.84375 -5.351562 5.019531 -4.316406 5.375 -3.703125 C 5.726562 -3.085938 6.285156 -2.78125 7.046875 -2.78125 C 7.691406 -2.78125 8.238281 -2.941406 8.6875 -3.265625 C 9.132812 -3.597656 9.507812 -4.144531 9.8125 -4.90625 C 9.851562 -5.007812 9.957031 -5.0625 10.125 -5.0625 C 10.207031 -5.0625 10.273438 -5.054688 10.328125 -5.046875 L 12.578125 -4.59375 C 12.765625 -4.53125 12.859375 -4.390625 12.859375 -4.171875 C 12.859375 -3.835938 12.648438 -3.316406 12.234375 -2.609375 C 11.816406 -1.910156 11.164062 -1.269531 10.28125 -0.6875 C 9.394531 -0.101562 8.273438 0.1875 6.921875 0.1875 C 5.640625 0.1875 4.515625 -0.113281 3.546875 -0.71875 C 2.585938 -1.332031 1.847656 -2.171875 1.328125 -3.234375 C 0.804688 -4.304688 0.546875 -5.523438 0.546875 -6.890625 C 0.546875 -8.234375 0.804688 -9.410156 1.328125 -10.421875 C 1.847656 -11.441406 2.59375 -12.222656 3.5625 -12.765625 C 4.539062 -13.316406 5.671875 -13.59375 6.953125 -13.59375 Z M 6.953125 -13.59375 "/></g></g></g><g fill="#39489d" fill-opacity="1"><g transform="translate(54.18471, 21.939041)"><g><path d="M 0.9375 -13 C 0.9375 -13.269531 1.050781 -13.40625 1.28125 -13.40625 L 11.046875 -13.40625 C 11.265625 -13.40625 11.375 -13.28125 11.375 -13.03125 L 11.359375 -10.9375 C 11.359375 -10.613281 11.203125 -10.453125 10.890625 -10.453125 L 5.453125 -10.453125 C 5.179688 -10.453125 5.046875 -10.335938 5.046875 -10.109375 L 5.046875 -8.5625 C 5.046875 -8.445312 5.070312 -8.351562 5.125 -8.28125 C 5.1875 -8.21875 5.269531 -8.1875 5.375 -8.1875 L 8.625 -8.1875 C 8.875 -8.1875 9 -8.066406 9 -7.828125 L 9 -5.59375 C 9 -5.382812 8.890625 -5.28125 8.671875 -5.28125 L 5.328125 -5.28125 C 5.242188 -5.28125 5.175781 -5.253906 5.125 -5.203125 C 5.070312 -5.160156 5.046875 -5.101562 5.046875 -5.03125 L 5.046875 -3.21875 C 5.046875 -3.125 5.0625 -3.054688 5.09375 -3.015625 C 5.125 -2.984375 5.179688 -2.96875 5.265625 -2.96875 L 11.140625 -2.96875 C 11.398438 -2.96875 11.53125 -2.851562 11.53125 -2.625 L 11.53125 -0.390625 C 11.53125 -0.273438 11.492188 -0.179688 11.421875 -0.109375 C 11.347656 -0.0351562 11.238281 0 11.09375 0 L 1.421875 0 C 1.242188 0 1.117188 -0.0351562 1.046875 -0.109375 C 0.972656 -0.179688 0.9375 -0.296875 0.9375 -0.453125 Z M 0.9375 -13 "/></g></g></g><g fill="#39489d" fill-opacity="1"><g transform="translate(66.316609, 21.939041)"><g><path d="M 12.546875 -13.40625 C 12.722656 -13.40625 12.8125 -13.304688 12.8125 -13.109375 L 12.8125 -0.328125 C 12.8125 -0.234375 12.769531 -0.15625 12.6875 -0.09375 C 12.613281 -0.03125 12.519531 0 12.40625 0 L 9.921875 0 C 9.816406 0 9.726562 -0.015625 9.65625 -0.046875 C 9.59375 -0.0859375 9.519531 -0.160156 9.4375 -0.265625 L 4.46875 -7.015625 C 4.414062 -7.078125 4.367188 -7.097656 4.328125 -7.078125 C 4.296875 -7.066406 4.28125 -7.035156 4.28125 -6.984375 L 4.28125 -0.390625 C 4.289062 -0.253906 4.265625 -0.15625 4.203125 -0.09375 C 4.140625 -0.03125 4.019531 0 3.84375 0 L 1.390625 0 C 1.085938 0 0.9375 -0.117188 0.9375 -0.359375 L 0.9375 -13 C 0.9375 -13.269531 1.070312 -13.40625 1.34375 -13.40625 L 4.28125 -13.40625 C 4.4375 -13.40625 4.550781 -13.382812 4.625 -13.34375 C 4.707031 -13.300781 4.800781 -13.21875 4.90625 -13.09375 L 9.234375 -7.046875 C 9.304688 -6.941406 9.375 -6.890625 9.4375 -6.890625 C 9.5 -6.890625 9.53125 -6.96875 9.53125 -7.125 L 9.53125 -13.03125 C 9.53125 -13.28125 9.660156 -13.40625 9.921875 -13.40625 Z M 12.546875 -13.40625 "/></g></g></g><g fill="#39489d" fill-opacity="1"><g transform="translate(80.075729, 21.939041)"><g><path d="M 0.5 -13 C 0.5 -13.113281 0.535156 -13.207031 0.609375 -13.28125 C 0.691406 -13.363281 0.804688 -13.40625 0.953125 -13.40625 L 11.765625 -13.40625 C 11.910156 -13.40625 12.019531 -13.363281 12.09375 -13.28125 C 12.175781 -13.207031 12.21875 -13.113281 12.21875 -13 L 12.21875 -10.84375 C 12.21875 -10.613281 12.085938 -10.5 11.828125 -10.5 L 8.625 -10.5 C 8.476562 -10.5 8.40625 -10.441406 8.40625 -10.328125 L 8.40625 -0.390625 C 8.40625 -0.265625 8.375 -0.164062 8.3125 -0.09375 C 8.25 -0.03125 8.164062 0 8.0625 0 L 4.625 0 C 4.40625 0 4.296875 -0.117188 4.296875 -0.359375 L 4.296875 -10.25 C 4.296875 -10.414062 4.234375 -10.5 4.109375 -10.5 L 0.921875 -10.5 C 0.640625 -10.5 0.5 -10.613281 0.5 -10.84375 Z M 0.5 -13 "/></g></g></g><g fill="#39489d" fill-opacity="1"><g transform="translate(92.804276, 21.939041)"><g><path d="M 12.671875 -0.578125 C 12.691406 -0.523438 12.703125 -0.457031 12.703125 -0.375 C 12.703125 -0.269531 12.671875 -0.179688 12.609375 -0.109375 C 12.546875 -0.0351562 12.457031 0 12.34375 0 L 8.84375 0 C 8.582031 0 8.421875 -0.125 8.359375 -0.375 L 6.65625 -5.046875 C 6.613281 -5.140625 6.550781 -5.207031 6.46875 -5.25 C 6.382812 -5.300781 6.257812 -5.328125 6.09375 -5.328125 L 5.265625 -5.328125 C 5.191406 -5.328125 5.132812 -5.300781 5.09375 -5.25 C 5.0625 -5.207031 5.046875 -5.171875 5.046875 -5.140625 L 5.046875 -0.53125 C 5.046875 -0.332031 4.992188 -0.191406 4.890625 -0.109375 C 4.796875 -0.0351562 4.648438 0 4.453125 0 L 1.40625 0 C 1.226562 0 1.101562 -0.0351562 1.03125 -0.109375 C 0.96875 -0.179688 0.9375 -0.296875 0.9375 -0.453125 L 0.9375 -13 C 0.9375 -13.269531 1.050781 -13.40625 1.28125 -13.40625 L 7.328125 -13.40625 C 9.066406 -13.40625 10.414062 -13.070312 11.375 -12.40625 C 12.34375 -11.738281 12.828125 -10.796875 12.828125 -9.578125 C 12.828125 -8.742188 12.609375 -8 12.171875 -7.34375 C 11.734375 -6.695312 11.164062 -6.242188 10.46875 -5.984375 C 10.394531 -5.941406 10.359375 -5.878906 10.359375 -5.796875 C 10.359375 -5.765625 10.367188 -5.710938 10.390625 -5.640625 Z M 7.15625 -8.03125 C 7.613281 -8.03125 7.96875 -8.144531 8.21875 -8.375 C 8.46875 -8.613281 8.59375 -8.929688 8.59375 -9.328125 C 8.59375 -9.773438 8.441406 -10.117188 8.140625 -10.359375 C 7.847656 -10.609375 7.484375 -10.734375 7.046875 -10.734375 L 5.453125 -10.734375 C 5.296875 -10.734375 5.1875 -10.707031 5.125 -10.65625 C 5.070312 -10.601562 5.046875 -10.507812 5.046875 -10.375 L 5.046875 -8.40625 C 5.046875 -8.269531 5.066406 -8.171875 5.109375 -8.109375 C 5.148438 -8.054688 5.226562 -8.03125 5.34375 -8.03125 Z M 7.15625 -8.03125 "/></g></g></g><g fill="#39489d" fill-opacity="1"><g transform="translate(106.165635, 21.939041)"><g><path d="M 0.78125 0 C 0.675781 0 0.59375 -0.03125 0.53125 -0.09375 C 0.476562 -0.164062 0.453125 -0.257812 0.453125 -0.375 C 0.453125 -0.457031 0.46875 -0.554688 0.5 -0.671875 L 4.875 -13 C 4.9375 -13.15625 5.003906 -13.257812 5.078125 -13.3125 C 5.148438 -13.375 5.265625 -13.40625 5.421875 -13.40625 L 8.984375 -13.40625 C 9.128906 -13.40625 9.257812 -13.359375 9.375 -13.265625 C 9.488281 -13.179688 9.578125 -13.066406 9.640625 -12.921875 L 13.96875 -0.609375 C 14 -0.515625 14.015625 -0.441406 14.015625 -0.390625 C 14.015625 -0.285156 13.988281 -0.191406 13.9375 -0.109375 C 13.882812 -0.0351562 13.8125 0 13.71875 0 L 10.171875 0 C 9.972656 0 9.84375 -0.101562 9.78125 -0.3125 L 9.078125 -2.390625 C 9.035156 -2.472656 9 -2.53125 8.96875 -2.5625 C 8.945312 -2.59375 8.890625 -2.609375 8.796875 -2.609375 L 4.96875 -2.609375 C 4.820312 -2.609375 4.734375 -2.539062 4.703125 -2.40625 L 3.953125 -0.265625 C 3.878906 -0.0859375 3.738281 0 3.53125 0 Z M 7.90625 -5.671875 C 8.03125 -5.671875 8.09375 -5.734375 8.09375 -5.859375 C 8.09375 -5.878906 8.082031 -5.9375 8.0625 -6.03125 L 6.984375 -9.125 C 6.953125 -9.1875 6.910156 -9.21875 6.859375 -9.21875 C 6.816406 -9.21875 6.785156 -9.1875 6.765625 -9.125 L 5.65625 -6.0625 C 5.632812 -6.007812 5.625 -5.945312 5.625 -5.875 C 5.625 -5.738281 5.695312 -5.671875 5.84375 -5.671875 Z M 7.90625 -5.671875 "/></g></g></g><g fill="#39489d" fill-opacity="1"><g transform="translate(120.611815, 21.939041)"><g><path d="M 0.9375 -13 C 0.9375 -13.132812 0.96875 -13.234375 1.03125 -13.296875 C 1.09375 -13.367188 1.175781 -13.40625 1.28125 -13.40625 L 4.71875 -13.40625 C 4.9375 -13.40625 5.046875 -13.28125 5.046875 -13.03125 L 5.046875 -3.21875 C 5.046875 -3.125 5.0625 -3.054688 5.09375 -3.015625 C 5.125 -2.984375 5.179688 -2.96875 5.265625 -2.96875 L 10.703125 -2.96875 C 10.984375 -2.96875 11.125 -2.851562 11.125 -2.625 L 11.125 -0.390625 C 11.125 -0.273438 11.082031 -0.179688 11 -0.109375 C 10.925781 -0.0351562 10.816406 0 10.671875 0 L 1.421875 0 C 1.242188 0 1.117188 -0.0351562 1.046875 -0.109375 C 0.972656 -0.179688 0.9375 -0.296875 0.9375 -0.453125 Z M 0.9375 -13 "/></g></g></g><g fill="#39489d" fill-opacity="1"><g transform="translate(132.237457, 21.939041)"><g><path d="M 4.71875 -13.40625 C 4.9375 -13.40625 5.046875 -13.28125 5.046875 -13.03125 L 5.046875 -0.53125 C 5.046875 -0.332031 4.992188 -0.191406 4.890625 -0.109375 C 4.796875 -0.0351562 4.648438 0 4.453125 0 L 1.421875 0 C 1.242188 0 1.117188 -0.0351562 1.046875 -0.109375 C 0.972656 -0.179688 0.9375 -0.296875 0.9375 -0.453125 L 0.9375 -13 C 0.9375 -13.132812 0.96875 -13.234375 1.03125 -13.296875 C 1.09375 -13.367188 1.175781 -13.40625 1.28125 -13.40625 Z M 4.71875 -13.40625 "/></g></g></g><g fill="#39489d" fill-opacity="1"><g transform="translate(138.222046, 21.939041)"><g><path d="M 0.9375 0 C 0.757812 0 0.632812 -0.03125 0.5625 -0.09375 C 0.5 -0.15625 0.46875 -0.273438 0.46875 -0.453125 L 0.46875 -1.265625 C 0.46875 -1.441406 0.484375 -1.578125 0.515625 -1.671875 C 0.554688 -1.765625 0.664062 -1.9375 0.84375 -2.1875 L 6.421875 -10.140625 C 6.460938 -10.203125 6.484375 -10.265625 6.484375 -10.328125 C 6.484375 -10.398438 6.40625 -10.4375 6.25 -10.4375 L 1.46875 -10.4375 C 1.3125 -10.4375 1.203125 -10.460938 1.140625 -10.515625 C 1.085938 -10.578125 1.0625 -10.691406 1.0625 -10.859375 L 1.0625 -13.03125 C 1.0625 -13.15625 1.09375 -13.25 1.15625 -13.3125 C 1.21875 -13.375 1.296875 -13.40625 1.390625 -13.40625 L 12 -13.40625 C 12.113281 -13.40625 12.195312 -13.375 12.25 -13.3125 C 12.3125 -13.25 12.34375 -13.160156 12.34375 -13.046875 L 12.34375 -12.125 C 12.34375 -12 12.320312 -11.882812 12.28125 -11.78125 C 12.238281 -11.6875 12.160156 -11.554688 12.046875 -11.390625 L 6.25 -3.25 C 6.226562 -3.21875 6.21875 -3.179688 6.21875 -3.140625 C 6.21875 -3.046875 6.300781 -3 6.46875 -3 L 11.84375 -3 C 12.101562 -3 12.234375 -2.882812 12.234375 -2.65625 L 12.234375 -0.390625 C 12.234375 -0.273438 12.195312 -0.179688 12.125 -0.109375 C 12.050781 -0.0351562 11.945312 0 11.8125 0 Z M 0.9375 0 "/></g></g></g><g fill="#39489d" fill-opacity="1"><g transform="translate(151.131396, 21.939041)"><g><path d="M 0.9375 -13 C 0.9375 -13.269531 1.050781 -13.40625 1.28125 -13.40625 L 11.046875 -13.40625 C 11.265625 -13.40625 11.375 -13.28125 11.375 -13.03125 L 11.359375 -10.9375 C 11.359375 -10.613281 11.203125 -10.453125 10.890625 -10.453125 L 5.453125 -10.453125 C 5.179688 -10.453125 5.046875 -10.335938 5.046875 -10.109375 L 5.046875 -8.5625 C 5.046875 -8.445312 5.070312 -8.351562 5.125 -8.28125 C 5.1875 -8.21875 5.269531 -8.1875 5.375 -8.1875 L 8.625 -8.1875 C 8.875 -8.1875 9 -8.066406 9 -7.828125 L 9 -5.59375 C 9 -5.382812 8.890625 -5.28125 8.671875 -5.28125 L 5.328125 -5.28125 C 5.242188 -5.28125 5.175781 -5.253906 5.125 -5.203125 C 5.070312 -5.160156 5.046875 -5.101562 5.046875 -5.03125 L 5.046875 -3.21875 C 5.046875 -3.125 5.0625 -3.054688 5.09375 -3.015625 C 5.125 -2.984375 5.179688 -2.96875 5.265625 -2.96875 L 11.140625 -2.96875 C 11.398438 -2.96875 11.53125 -2.851562 11.53125 -2.625 L 11.53125 -0.390625 C 11.53125 -0.273438 11.492188 -0.179688 11.421875 -0.109375 C 11.347656 -0.0351562 11.238281 0 11.09375 0 L 1.421875 0 C 1.242188 0 1.117188 -0.0351562 1.046875 -0.109375 C 0.972656 -0.179688 0.9375 -0.296875 0.9375 -0.453125 Z M 0.9375 -13 "/></g></g></g><g fill="#39489d" fill-opacity="1"><g transform="translate(163.263295, 21.939041)"><g><path d="M 3.5625 -13.40625 C 5 -13.40625 5.890625 -13.398438 6.234375 -13.390625 C 8.585938 -13.304688 10.363281 -12.671875 11.5625 -11.484375 C 12.769531 -10.296875 13.375 -8.71875 13.375 -6.75 C 13.375 -5.414062 13.101562 -4.242188 12.5625 -3.234375 C 12.019531 -2.222656 11.210938 -1.429688 10.140625 -0.859375 C 9.066406 -0.285156 7.757812 0 6.21875 0 L 1.46875 0 C 1.28125 0 1.144531 -0.0390625 1.0625 -0.125 C 0.976562 -0.207031 0.9375 -0.347656 0.9375 -0.546875 L 0.9375 -12.96875 C 0.9375 -13.132812 0.972656 -13.25 1.046875 -13.3125 C 1.117188 -13.375 1.242188 -13.40625 1.421875 -13.40625 Z M 5.21875 -10.578125 C 5.164062 -10.578125 5.125 -10.554688 5.09375 -10.515625 C 5.0625 -10.484375 5.046875 -10.421875 5.046875 -10.328125 L 5.046875 -3.109375 C 5.046875 -3.003906 5.0625 -2.929688 5.09375 -2.890625 C 5.132812 -2.859375 5.203125 -2.84375 5.296875 -2.84375 L 5.421875 -2.84375 C 6.617188 -2.84375 7.523438 -3.148438 8.140625 -3.765625 C 8.765625 -4.390625 9.078125 -5.398438 9.078125 -6.796875 C 9.078125 -8.003906 8.84375 -8.898438 8.375 -9.484375 C 7.90625 -10.078125 7.21875 -10.414062 6.3125 -10.5 Z M 5.21875 -10.578125 "/></g></g></g></svg>